<?xml version="1.0" standalone="no"?>
<!DOCTYPE svg PUBLIC "-//W3C//DTD SVG 20010904//EN"
 "http://www.w3.org/TR/2001/REC-SVG-20010904/DTD/svg10.dtd">
<svg version="1.0" xmlns="http://www.w3.org/2000/svg"
 width="1024.000000pt" height="1024.000000pt" viewBox="0 0 1024.000000 1024.000000"
 preserveAspectRatio="xMidYMid meet">
<metadata>
Created by potrace 1.15, written by Peter Selinger 2001-2017
</metadata>
<g transform="translate(0.000000,1024.000000) scale(0.100000,-0.100000)"
fill="#000000" stroke="none">
<path d="M0 5120 l0 -5120 5120 0 5120 0 0 5120 0 5120 -5120 0 -5120 0 0
-5120z m5602 735 c9 -21 8 -32 -5 -60 -18 -38 -9 -52 23 -35 12 6 35 10 53 8
27 -2 33 -8 35 -30 5 -40 -34 -57 -79 -34 -17 9 -34 16 -36 16 -1 0 -3 -23 -3
-50 0 -42 5 -55 26 -75 15 -14 30 -25 34 -25 13 0 28 -47 23 -73 -7 -36 -76
-97 -109 -97 -17 0 -40 14 -65 39 -51 50 -54 97 -9 134 16 14 33 27 38 29 13
4 23 106 12 113 -5 3 -21 -2 -35 -11 -31 -20 -71 -12 -80 17 -13 41 39 64 87
38 31 -17 43 3 24 39 -13 25 -14 36 -4 57 15 34 54 34 70 0z m-297 -435 c18
-11 40 -31 49 -44 8 -13 31 -29 51 -36 19 -6 35 -16 35 -21 0 -16 -48 -59 -66
-59 -9 0 -38 23 -64 50 -50 55 -73 58 -91 12 -11 -29 -5 -74 23 -164 l21 -67
42 6 c37 5 44 2 63 -22 25 -31 28 -72 10 -123 -12 -31 -11 -35 12 -53 25 -18
74 -25 105 -13 13 5 45 53 45 68 0 3 -18 26 -40 51 -32 37 -40 54 -40 85 0 58
16 67 110 68 71 0 82 -2 95 -21 27 -39 19 -81 -25 -132 -30 -35 -39 -53 -34
-69 17 -58 101 -76 144 -31 21 22 22 29 12 45 -21 34 -15 106 10 130 23 21 67
27 84 10 14 -14 54 87 61 157 12 115 -19 138 -88 64 -26 -28 -54 -51 -62 -51
-20 0 -67 38 -67 55 0 7 13 18 30 23 16 6 48 30 70 54 38 41 42 43 97 43 96 0
155 -59 155 -154 -1 -59 -19 -102 -94 -224 -64 -104 -81 -164 -58 -206 9 -18
19 -22 48 -19 36 3 37 4 42 49 3 26 12 54 19 63 16 19 62 21 80 4 10 -11 17
-7 38 17 61 73 93 196 60 224 -11 8 -18 6 -32 -9 -23 -25 -61 -26 -75 -1 -14
28 -13 41 6 41 8 0 35 12 60 26 53 31 88 27 130 -17 26 -27 29 -37 29 -93 0
-56 -4 -69 -37 -117 -21 -30 -56 -75 -79 -101 -31 -35 -43 -58 -46 -91 -4 -37
-10 -45 -34 -54 -38 -15 -49 -47 -49 -144 0 -47 -4 -79 -10 -79 -6 0 -54 10
-108 22 -88 21 -122 23 -377 23 -255 0 -289 -2 -377 -23 -54 -12 -100 -22
-103 -22 -3 0 -5 30 -5 68 0 100 -14 141 -55 158 -25 10 -32 18 -28 32 7 29
-20 82 -74 142 -65 72 -93 127 -93 185 0 57 21 100 60 120 40 21 58 19 105
-10 22 -13 48 -25 58 -25 19 0 22 -13 7 -41 -13 -23 -52 -25 -70 -4 -19 22
-47 18 -53 -7 -8 -33 6 -87 38 -146 36 -66 61 -90 77 -74 7 7 21 12 33 12 38
0 58 -24 64 -76 6 -46 8 -49 37 -52 46 -5 67 21 61 74 -4 39 -30 91 -108 218
-41 67 -62 149 -49 196 27 101 134 150 215 100z m308 -80 c61 -48 30 -140 -48
-140 -51 0 -91 48 -79 95 8 31 49 65 79 65 12 0 34 -9 48 -20z m-1721 -634
c13 -3 59 -4 103 -3 86 2 138 -16 149 -51 4 -10 28 -29 54 -41 26 -12 60 -33
76 -46 l30 -24 -18 -56 c-9 -31 -23 -58 -30 -61 -7 -2 -29 2 -49 11 -44 18
-101 20 -114 3 -18 -23 -24 -66 -11 -75 7 -4 35 -10 63 -13 l50 -5 2 -52 c2
-29 1 -53 -1 -53 -2 0 -20 7 -39 15 -20 8 -52 15 -72 15 -30 0 -35 -3 -35 -23
0 -40 56 -76 148 -96 154 -32 263 -152 288 -317 l6 -41 -58 -5 c-46 -4 -85
-17 -174 -62 -93 -46 -128 -58 -182 -63 l-68 -6 0 52 0 52 -31 -36 c-49 -55
-61 -59 -118 -34 -27 11 -57 29 -66 39 -16 18 -16 22 4 63 22 46 25 66 15 114
l-6 29 -46 -23 c-52 -26 -65 -27 -107 -9 l-30 13 35 18 c63 32 74 66 43 130
-15 32 -20 35 -49 29 -47 -9 -93 19 -94 57 0 12 7 15 23 12 40 -8 63 30 58 96
-9 130 -6 166 15 206 20 38 23 40 63 37 46 -4 91 18 91 45 0 15 -1 15 -18 0
-28 -25 -57 -21 -97 14 -46 40 -46 71 -2 87 83 30 181 1 220 -65 11 -20 22
-32 24 -26 7 21 -17 62 -56 94 -46 36 -58 63 -40 85 11 14 14 13 21 -5 4 -11
17 -23 30 -25z m3408 7 c0 -8 -22 -36 -50 -61 -27 -26 -52 -59 -56 -74 -8 -38
0 -35 24 6 39 66 152 97 222 61 40 -21 38 -46 -5 -84 -40 -35 -69 -39 -97 -14
-17 15 -18 15 -18 0 0 -27 45 -49 91 -45 41 3 43 2 66 -42 22 -40 24 -52 18
-115 -4 -38 -8 -87 -8 -107 -1 -46 27 -81 60 -75 33 6 30 -26 -4 -53 -22 -17
-36 -20 -64 -16 -33 5 -37 3 -52 -30 -9 -19 -17 -45 -17 -57 0 -27 30 -62 60
-72 29 -9 20 -28 -18 -39 -25 -7 -41 -4 -81 16 l-49 24 -6 -29 c-10 -48 -7
-68 15 -114 20 -41 20 -45 4 -63 -9 -10 -39 -28 -66 -39 -57 -25 -69 -21 -118
34 l-31 36 0 -52 0 -52 -67 6 c-55 5 -90 17 -183 63 -89 45 -128 58 -174 62
l-58 5 6 41 c25 165 134 285 288 317 92 20 148 56 148 96 0 20 -5 23 -35 23
-20 0 -52 -7 -72 -15 -19 -8 -37 -15 -39 -15 -2 0 -3 24 -1 53 2 52 2 52 37
55 75 6 81 9 78 50 -4 48 -38 62 -101 43 -77 -23 -80 -22 -102 42 l-20 57 30
25 c17 13 51 34 77 46 26 12 50 30 53 38 3 9 20 26 37 36 27 17 49 20 122 18
93 -2 126 7 126 34 0 13 3 13 15 3 8 -7 15 -19 15 -27z m-2431 -289 c2 -2 -8
-17 -23 -34 -46 -56 -38 -59 72 -31 l72 18 0 -106 c0 -58 4 -112 9 -119 5 -8
23 -12 47 -10 l39 3 5 125 5 124 65 12 c36 7 139 18 231 25 252 19 557 -8 806
-71 43 -11 84 -20 91 -20 19 0 14 28 -8 50 -29 29 -25 40 14 40 25 0 40 -7 58
-28 13 -16 36 -32 51 -36 16 -4 30 -14 33 -24 20 -61 32 -77 79 -107 28 -18
91 -46 139 -61 80 -24 87 -29 70 -40 -38 -27 -76 -70 -95 -106 -11 -21 -24
-38 -29 -38 -5 0 -26 16 -47 35 -21 20 -58 49 -83 66 -45 30 -45 30 -62 10 -9
-12 -18 -21 -21 -21 -11 0 -28 60 -22 79 8 25 -10 61 -30 61 -13 0 -15 -51
-15 -360 0 -336 1 -360 18 -360 9 0 69 39 132 86 203 152 217 154 401 62 l124
-62 100 0 c72 1 111 6 140 18 l40 17 42 -47 c55 -62 104 -165 140 -291 l28
-102 42 -10 c178 -45 269 49 194 201 -12 24 -48 75 -81 113 -97 113 -115 148
-115 230 0 57 5 77 25 110 56 91 115 113 302 114 75 1 148 5 162 11 14 5 32
23 41 40 24 47 35 36 35 -39 0 -53 -4 -74 -20 -94 -35 -44 -108 -56 -178 -29
-16 6 -16 4 0 -19 15 -24 23 -62 20 -101 -3 -27 -19 -21 -30 11 -15 42 -79
100 -126 112 -89 24 -154 -13 -163 -94 -7 -62 18 -111 113 -217 123 -137 156
-214 134 -314 -15 -69 -51 -113 -124 -147 -50 -24 -74 -29 -133 -29 -68 0 -73
-1 -73 -22 0 -12 9 -41 21 -65 52 -107 176 -144 210 -62 15 38 25 37 33 -5 10
-53 -15 -99 -64 -118 -22 -8 -23 -10 -8 -19 20 -11 48 -97 48 -148 0 -20 -5
-80 -12 -135 l-12 -98 27 -24 c16 -13 40 -24 55 -24 l27 -1 -28 -24 c-33 -29
-56 -31 -103 -9 -27 13 -37 14 -48 4 -17 -13 -11 -36 17 -67 11 -13 18 -26 14
-29 -14 -14 -77 8 -100 35 -21 25 -26 27 -42 15 -22 -16 -83 -18 -120 -4 -38
15 -72 2 -87 -31 -15 -34 -23 -36 -38 -10 -19 37 -12 78 20 104 16 14 30 28
30 31 0 13 -65 5 -82 -11 -17 -15 -18 -14 -18 19 0 64 54 93 123 63 13 -5 17
-2 17 12 0 26 -19 43 -49 43 l-25 0 21 22 c32 31 74 28 118 -10 28 -25 45 -32
77 -32 l41 0 -7 49 c-13 98 -68 182 -145 220 -20 10 -69 31 -110 46 -74 28
-141 76 -141 101 0 18 -14 18 -30 -1 -19 -23 -65 -18 -99 11 -34 28 -43 61
-13 49 83 -36 165 86 148 218 -15 120 -118 242 -263 314 -76 37 -79 38 -188
38 -104 -1 -114 -3 -177 -34 -82 -41 -96 -55 -80 -82 10 -16 10 -21 -3 -26 -9
-3 -27 -1 -40 5 -21 10 -26 8 -36 -10 -9 -16 -7 -26 10 -49 26 -35 26 -39 2
-39 -11 0 -33 13 -49 30 l-30 29 -4 -142 c-5 -171 -21 -219 -102 -295 -66 -62
-101 -84 -318 -199 -98 -51 -212 -113 -253 -138 -40 -25 -77 -45 -81 -45 -4 0
-48 24 -98 54 -50 30 -163 91 -251 137 -243 125 -330 192 -378 289 -19 39 -22
64 -25 193 l-4 147 -34 -30 c-34 -29 -64 -39 -64 -21 0 5 7 14 15 21 16 14 20
65 6 75 -5 3 -21 0 -35 -6 -13 -6 -32 -9 -41 -5 -15 5 -15 7 -1 22 23 22 20
28 -21 57 -137 93 -338 88 -488 -14 -53 -35 -122 -104 -152 -152 -13 -20 -30
-66 -38 -100 -13 -57 -13 -71 1 -123 24 -93 88 -145 147 -120 23 11 22 -5 -3
-37 -26 -33 -82 -45 -112 -25 -21 14 -24 13 -43 -16 -21 -32 -87 -70 -171 -99
-125 -42 -199 -127 -211 -242 l-6 -55 35 0 c23 0 50 11 79 32 46 33 88 40 113
18 21 -16 20 -30 -1 -30 -21 0 -53 -29 -53 -48 0 -10 5 -12 18 -7 45 20 81 17
106 -9 26 -25 37 -86 16 -86 -5 0 -10 4 -10 8 0 14 -42 28 -69 24 -22 -4 -22
-5 13 -37 40 -36 46 -67 20 -104 l-16 -23 -18 30 c-23 37 -45 45 -90 32 -48
-14 -93 -12 -115 4 -16 12 -21 10 -42 -15 -14 -16 -39 -31 -58 -35 -53 -10
-60 -2 -31 33 45 54 26 89 -33 59 -41 -22 -65 -20 -97 8 l-28 23 37 7 c59 11
72 41 58 126 -21 132 -11 248 25 291 19 22 18 25 -15 38 -44 19 -63 81 -42
136 7 18 10 16 24 -17 19 -44 51 -56 107 -39 61 18 130 112 130 176 0 6 -35
10 -83 11 -62 0 -93 6 -128 22 -92 43 -137 125 -126 230 7 66 40 125 127 222
100 112 124 153 124 211 0 87 -54 129 -147 115 -53 -8 -123 -63 -144 -114 -10
-24 -18 -31 -25 -24 -12 12 -2 98 13 107 23 15 4 21 -54 17 -114 -7 -156 38
-142 153 l7 56 24 -34 c13 -19 38 -40 55 -46 18 -6 95 -11 173 -11 118 0 147
-4 181 -20 85 -41 128 -107 128 -199 0 -73 -21 -115 -105 -216 -85 -100 -118
-164 -118 -226 0 -93 68 -131 193 -109 38 7 70 17 71 24 54 202 86 283 146
363 22 28 48 54 58 57 10 4 38 -1 62 -9 56 -20 185 -19 241 0 24 9 78 34 120
55 95 49 147 62 197 48 20 -5 99 -55 176 -110 77 -55 144 -97 152 -94 12 4 14
68 14 366 0 215 -4 360 -9 360 -23 0 -43 -34 -38 -64 2 -17 -2 -44 -10 -59
l-14 -28 -18 22 -18 22 -39 -23 c-21 -14 -61 -45 -87 -69 -54 -51 -47 -53 -97
29 -13 22 -39 50 -57 63 -37 25 -42 37 -15 37 23 1 127 36 179 61 45 22 93 71
93 95 0 20 48 67 60 59 5 -3 17 6 26 21 20 30 51 45 79 37 11 -3 22 -7 24 -9z
m-369 -29 c0 -77 -70 -105 -160 -64 -25 11 -67 25 -95 30 -27 5 -54 14 -60 20
-7 9 17 10 90 4 146 -10 166 -8 195 20 13 14 26 25 27 25 2 0 3 -16 3 -35z
m2220 -16 c19 -1 77 2 128 6 65 6 92 5 92 -3 0 -6 -17 -14 -37 -17 -21 -3 -66
-17 -101 -30 -76 -30 -111 -31 -146 -4 -20 16 -26 29 -26 62 l0 41 28 -27 c18
-18 40 -27 62 -28z m-2385 -1114 c28 -12 93 -57 144 -101 151 -127 151 -127
195 -109 17 7 18 5 12 -21 -10 -41 -31 -58 -70 -57 -33 1 -34 0 -39 -44 -3
-29 -17 -63 -41 -97 -20 -29 -36 -57 -36 -62 0 -13 90 -72 122 -79 22 -6 33 0
67 34 45 45 67 50 102 22 l24 -19 -38 -15 c-26 -11 -37 -22 -37 -37 0 -20 1
-20 31 -4 41 21 75 11 99 -29 31 -50 23 -91 -10 -52 -13 16 -65 21 -74 7 -3
-5 8 -18 23 -30 36 -26 42 -50 24 -93 l-14 -33 -19 32 c-17 28 -25 32 -62 31
-24 -1 -54 -4 -68 -8 -14 -4 -36 -4 -49 1 -18 7 -28 3 -46 -16 -21 -22 -80
-44 -92 -33 -2 3 5 19 18 36 19 26 20 34 10 58 -13 33 -84 83 -116 83 -11 -1
-31 -7 -45 -15 -33 -19 -64 -19 -100 0 -36 19 -39 35 -7 35 13 0 31 6 40 13
24 18 48 92 54 172 5 61 2 73 -16 96 -22 29 -83 60 -213 110 -45 18 -87 36
-92 40 -5 5 2 17 17 29 29 23 34 49 16 82 -16 30 14 53 121 94 42 16 97 10
165 -21z m2676 2 c69 -31 83 -46 69 -81 -14 -38 -13 -44 16 -73 14 -14 22 -29
17 -32 -4 -4 -35 -17 -68 -30 -251 -98 -270 -117 -246 -252 15 -88 39 -132 79
-144 41 -12 40 -21 -3 -42 -32 -15 -38 -15 -89 2 -63 21 -95 13 -141 -35 -32
-33 -35 -72 -10 -100 10 -11 16 -23 12 -26 -10 -11 -69 8 -89 28 -16 16 -37
21 -114 24 l-93 4 -16 -31 c-16 -29 -17 -30 -30 -12 -25 33 -19 80 15 105 17
12 30 25 30 30 0 12 -68 10 -75 -2 -3 -5 -12 -10 -20 -10 -20 0 -1 60 27 83
22 18 47 18 92 1 34 -13 13 30 -23 47 l-34 16 24 16 c36 25 55 21 104 -24 41
-38 47 -40 75 -31 33 12 120 69 120 79 0 4 -9 16 -19 27 -31 34 -71 117 -71
147 0 27 -3 29 -40 29 -41 0 -60 18 -60 59 0 17 5 19 33 14 28 -4 41 1 73 28
21 19 41 36 44 39 3 3 36 31 73 63 141 118 218 137 338 84z m-871 -907 c436
-32 620 -64 652 -114 11 -16 10 -316 -1 -316 -5 0 -29 9 -54 20 -60 27 -260
56 -482 71 -104 7 -395 12 -690 12 -295 0 -586 -5 -690 -12 -222 -15 -422 -44
-482 -71 -25 -11 -49 -20 -54 -20 -11 0 -12 300 -1 316 32 49 273 90 687 117
120 8 1002 6 1115 -3z m-1976 -299 c49 -12 95 -26 102 -32 10 -8 14 -37 14
-100 0 -68 4 -91 17 -104 15 -16 17 -16 32 4 9 11 37 30 63 41 49 21 208 46
234 36 11 -4 14 -26 14 -89 0 -75 -3 -87 -24 -110 -46 -49 -109 -44 -436 34
-129 31 -144 33 -335 33 -185 1 -204 -1 -247 -21 -43 -20 -68 -17 -54 5 3 5
14 64 26 132 12 68 25 131 30 141 9 16 71 41 130 53 62 12 347 -3 434 -23z
m3247 19 c29 -6 69 -18 88 -28 34 -16 37 -22 49 -87 7 -38 19 -104 26 -145 8
-41 12 -78 10 -82 -2 -4 -17 0 -32 7 -55 29 -134 37 -307 32 -142 -5 -190 -11
-295 -36 -246 -59 -346 -75 -390 -62 -54 16 -70 49 -70 146 0 57 4 77 14 81
26 10 185 -15 234 -36 26 -11 55 -31 65 -43 17 -22 17 -22 32 -3 11 14 15 45
15 107 0 59 4 90 13 98 15 12 120 38 206 50 81 12 280 13 342 1z"/>
<path d="M5361 4297 c-14 -6 -62 -64 -108 -127 -105 -144 -120 -160 -133 -140
-7 12 -12 12 -21 3 -10 -10 -9 -17 5 -32 25 -27 14 -53 -18 -45 -14 3 -33 1
-43 -5 -15 -9 -16 -10 -2 -11 9 0 19 -7 23 -15 4 -11 -2 -15 -24 -15 -16 0
-32 -4 -35 -10 -3 -5 3 -10 14 -10 30 0 33 -15 10 -45 -20 -25 -21 -28 -5 -43
16 -16 19 -15 48 21 16 20 34 37 38 37 5 0 52 -25 105 -55 93 -52 115 -58 115
-32 0 7 7 24 14 39 l15 28 -77 24 c-53 16 -83 20 -95 14 -24 -12 -54 -1 -68
24 -9 17 -9 20 4 15 8 -3 23 3 32 13 14 15 22 17 36 9 20 -10 39 -5 39 12 0 5
-7 9 -15 9 -8 0 -15 4 -15 9 0 5 43 68 96 141 82 113 95 137 92 166 -3 32 -4
33 -27 21z"/>
<path d="M5670 4268 c11 -55 4 -68 -35 -68 -19 0 -42 -9 -58 -22 -14 -13 -37
-31 -52 -41 -19 -14 -25 -26 -23 -45 3 -25 6 -27 44 -24 29 2 47 -2 58 -14 23
-22 16 -37 -22 -49 -24 -7 -32 -15 -32 -33 0 -20 3 -22 23 -16 39 12 52 10 55
-13 4 -28 -27 -49 -98 -64 -68 -14 -102 -33 -124 -69 -26 -45 -21 -67 17 -75
17 -4 65 -22 106 -41 77 -35 120 -41 184 -23 36 10 37 11 31 47 -3 24 -1 44 9
56 13 18 15 18 40 1 15 -9 34 -14 43 -11 16 6 16 8 0 24 -9 11 -16 35 -16 56
0 34 2 38 22 33 23 -6 58 8 58 23 0 6 -6 10 -14 10 -23 0 -29 17 -32 94 -2 39
-4 85 -6 101 -3 26 2 33 37 50 37 18 38 20 15 23 -64 7 -69 10 -76 57 -3 25
-9 45 -13 45 -3 0 -21 -9 -39 -20 -43 -27 -47 -26 -72 15 -29 47 -39 44 -30
-7z"/>
<path d="M6032 4043 l3 -138 43 -3 42 -3 0 140 0 141 -45 0 -46 0 3 -137z"/>
<path d="M6186 3745 c-20 -30 -5 -29 -164 -9 -121 15 -182 -97 -103 -189 49
-57 61 -81 61 -118 0 -42 -30 -69 -77 -69 -41 0 -91 35 -99 67 -10 46 -34 116
-49 143 -13 23 -18 25 -97 26 -73 0 -90 4 -145 32 -34 18 -74 32 -88 32 -34 0
-79 -23 -135 -70 -60 -50 -120 -90 -135 -90 -12 0 -6 65 9 101 4 10 3 20 -2
23 -6 3 -13 -2 -16 -11 -6 -14 -8 -14 -21 3 -13 17 -14 17 -15 2 0 -25 -16
-22 -35 5 -15 21 -15 21 -9 -13 l7 -35 -27 24 c-28 26 -33 22 -15 -11 15 -28
5 -33 -28 -11 l-28 18 19 -29 18 -29 -25 5 c-25 5 -25 4 -10 -19 14 -21 14
-23 -1 -23 -32 0 -7 -17 34 -24 35 -5 40 -10 40 -32 0 -25 1 -26 24 -11 28 18
42 11 21 -10 -8 -8 -15 -21 -15 -29 0 -11 4 -12 19 -4 29 15 31 13 31 -25 0
-32 2 -35 31 -35 20 0 40 10 60 29 37 37 37 49 -2 63 -34 12 -31 16 24 47 81
45 193 62 271 40 53 -15 129 -94 150 -155 29 -86 13 -174 -34 -189 -34 -11
-10 -28 31 -22 22 3 39 1 39 -3 0 -22 35 -38 97 -45 73 -8 108 -23 136 -61 18
-24 17 -24 -6 -35 -18 -8 -30 -8 -46 1 -23 12 -61 5 -61 -11 0 -5 8 -9 19 -9
10 0 24 -6 30 -14 10 -12 7 -15 -16 -18 -20 -2 -29 -9 -31 -26 -3 -21 -2 -22
17 -10 25 16 36 6 22 -20 -11 -21 -5 -52 10 -52 5 0 9 7 9 15 0 9 12 20 28 26
15 6 34 15 43 19 9 5 36 6 60 3 l44 -6 -24 20 c-25 20 -22 47 4 37 16 -7 55
12 55 27 0 6 -5 7 -10 4 -6 -3 -19 -4 -29 0 -26 8 -68 140 -50 161 6 7 8 22 4
31 -6 17 -7 17 -16 1 -31 -55 -169 32 -169 105 0 8 23 12 73 12 117 0 165 44
154 141 -4 43 -19 70 -90 165 -33 45 4 99 58 85 28 -7 85 -64 85 -85 1 -13 3
-12 11 2 6 10 9 26 6 36 -3 14 5 20 38 29 46 12 66 41 56 81 l-7 24 -18 -28z"/>
<path d="M5420 3401 c-19 -11 -61 -46 -92 -80 -34 -36 -66 -61 -78 -61 -11 0
-20 -4 -20 -8 0 -14 23 -32 40 -32 13 0 20 -17 30 -72 12 -70 12 -71 -11 -89
-39 -30 -59 -33 -83 -10 -12 12 -31 21 -41 21 -17 0 -17 -1 -2 -18 24 -26 21
-33 -8 -26 -26 7 -55 -9 -55 -30 0 -8 11 -11 33 -8 l32 4 -22 -21 c-25 -24
-27 -30 -14 -49 7 -11 9 -11 14 2 5 13 18 16 62 13 30 -2 61 -9 67 -15 21 -21
35 -13 30 17 -3 23 2 33 28 51 27 19 35 21 60 10 16 -7 36 -10 45 -6 12 4 10
10 -10 30 -32 32 -34 108 -5 166 16 32 33 45 100 78 72 34 79 40 65 52 -12 10
-15 24 -12 45 4 24 0 34 -14 43 -28 18 -99 14 -139 -7z"/>
<path d="M5570 2800 l0 -140 45 0 45 0 0 140 0 140 -45 0 -45 0 0 -140z"/>
</g>
</svg>
